<svg xmlns="http://www.w3.org/2000/svg" viewBox="0 0 680 410"><defs></defs>
<path d="M44 348 C 170 312 250 384 360 360 C 470 336 560 318 640 340 L640 372 C 560 350 470 368 360 392 C 250 416 170 344 44 380 Z" fill="#1E3A8A"></path>
<text x="34" y="330" font-family="Poppins, &#39;Segoe UI&#39;, Arial, sans-serif" font-weight="800" font-size="330" fill="#1E3A8A">D</text>
<text x="452" y="330" font-family="Poppins, &#39;Segoe UI&#39;, Arial, sans-serif" font-weight="800" font-size="330" fill="#1E3A8A">H</text>
<path d="M340 92 C 286 92 248 134 248 182 C 248 250 340 322 340 322 C 340 322 432 250 432 182 C 432 134 394 92 340 92 Z" fill="#FFFFFF"></path>
<path d="M340 104 C 292 104 258 142 258 184 C 258 244 340 308 340 308 C 340 308 422 244 422 184 C 422 142 388 104 340 104 Z" fill="#F59E0B"></path>
<circle cx="340" cy="182" r="38" fill="#FFFFFF"></circle>
<path d="M300 150 C 322 96 388 86 430 116" fill="none" stroke="#1E3A8A" stroke-width="13" stroke-linecap="round"></path>
<g fill="#1E3A8A" transform="translate(430 104) rotate(32) scale(1.7)"><path d="M2 0 L24 -2.5 L33 -17 L39 -17 L35 -2.5 L52 -4 L59 -10 L63 -8 L60.5 0 L63 8 L59 10 L52 4 L35 2.5 L39 17 L33 17 L24 2.5 L2 0 Z"></path></g></svg>